HIERARCHY
ROOT Hips
{
	OFFSET 0.000000 88.474243 0.000000
	CHANNELS 6 Xposition Yposition Zposition Zrotation Yrotation Xrotation 
	JOINT Hips_Spine
	{
		OFFSET 0.000000 0.000000 0.000000
		CHANNELS 3 Zrotation Yrotation Xrotation
		JOINT Spine
		{
			OFFSET 0.005100 8.711998 -0.691000
			CHANNELS 3 Zrotation Yrotation Xrotation
			JOINT Spine1
			{
				OFFSET -0.009200 8.660301 -1.275000
				CHANNELS 3 Zrotation Yrotation Xrotation
				JOINT Spine2
				{
					OFFSET 0.006300 9.852501 -1.857000
					CHANNELS 3 Zrotation Yrotation Xrotation
					JOINT Spine2_Neck
					{
						OFFSET 0.000000 0.000000 0.000000
						CHANNELS 3 Zrotation Yrotation Xrotation
						JOINT Neck
						{
							OFFSET 0.016300 11.420799 -0.263300
							CHANNELS 3 Zrotation Yrotation Xrotation
							End Site #name: Head
							{
								OFFSET -0.019200 9.262405 2.362500
							}
						}
					}
					JOINT Spine2_LeftShoulder
					{
						OFFSET 0.000000 0.000000 0.000000
						CHANNELS 3 Zrotation Yrotation Xrotation
						JOINT LeftShoulder
						{
							OFFSET 5.616900 6.732201 -0.345700
							CHANNELS 3 Zrotation Yrotation Xrotation
							JOINT LeftArm
							{
								OFFSET 10.664888 -0.183372 -2.440700
								CHANNELS 3 Zrotation Yrotation Xrotation
								JOINT LeftForeArm
								{
									OFFSET 27.459126 0.000000 0.000000
									CHANNELS 3 Zrotation Yrotation Xrotation
									End Site #name: LeftHand
									{
										OFFSET 21.306858 0.000000 0.000000
									}
								}
							}
						}
					}
					JOINT Spine2_RightShoulder
					{
						OFFSET 0.000000 0.000000 0.000000
						CHANNELS 3 Zrotation Yrotation Xrotation
						JOINT RightShoulder
						{
							OFFSET -5.580300 6.737503 -0.344400
							CHANNELS 3 Zrotation Yrotation Xrotation
							JOINT RightArm
							{
								OFFSET -10.679335 -0.188484 -2.383900
								CHANNELS 3 Zrotation Yrotation Xrotation
								JOINT RightForeArm
								{
									OFFSET -27.503529 0.000000 0.000000
									CHANNELS 3 Zrotation Yrotation Xrotation
									End Site #name: RightHand
									{
										OFFSET -21.306808 0.000000 0.000000
									}
								}
							}
						}
					}
				}
			}
		}
	}
	JOINT Hips_LeftUpLeg
	{
		OFFSET 0.000000 0.000000 0.000000
		CHANNELS 3 Zrotation Yrotation Xrotation
		JOINT LeftUpLeg
		{
			OFFSET 6.857700 -6.739601 0.312100
			CHANNELS 3 Zrotation Yrotation Xrotation
			JOINT LeftLeg
			{
				OFFSET -0.367590 -34.731552 -4.572400
				CHANNELS 3 Zrotation Yrotation Xrotation
				End Site #name: LeftFoot
				{
					OFFSET 0.367590 -34.656704 -6.067400
				}
			}
		}
	}
	JOINT Hips_RightUpLeg
	{
		OFFSET 0.000000 0.000000 0.000000
		CHANNELS 3 Zrotation Yrotation Xrotation
		JOINT RightUpLeg
		{
			OFFSET -6.876100 -6.733299 0.301000
			CHANNELS 3 Zrotation Yrotation Xrotation
			JOINT RightLeg
			{
				OFFSET 0.347353 -34.795158 -4.515900
				CHANNELS 3 Zrotation Yrotation Xrotation
				End Site #name: RightFoot
				{
					OFFSET -0.347353 -34.589367 -6.070300
				}
			}
		}
	}
}
MOTION
Frames: 15
Frame Time: 0.041667
0.404767 0.916308 -1.158587 1.549322 -2.885002 -6.182267 -0.000000 0.000000 -0.000000 -2.170164 -0.634745 -3.924972 1.953204 -1.957062 -6.021903 0.000000 0.000000 0.000000 2.435945 -1.450056 -5.921250 3.841520 -3.595897 -3.647287 1.044881 -1.758528 -6.567722 -19.240463 0.487273 9.473682 -52.040141 10.527772 3.289268 -0.245478 -22.534822 7.586045 1.493145 -1.875992 -3.148785 3.154305 5.655040 1.385651 67.860814 0.218765 -8.019576 0.645785 45.501179 -0.622436 0.000000 -0.000000 -0.000000 -9.538813 24.917114 -2.797462 -1.742338 2.191950 18.009907 0.000000 0.000000 0.000000 -7.325315 3.697648 -19.872672 4.040943 -4.431317 16.977205 
0.193132 0.926056 -1.239223 1.381870 -5.615085 -6.288318 -0.000000 0.000000 -0.000000 -1.263088 -0.674435 -4.467841 2.141361 -1.982638 -5.987198 0.000000 0.000000 0.000000 2.617027 -1.412976 -5.899209 3.730474 -3.641136 -3.181908 1.250707 -1.724663 -6.480292 -18.598657 0.393120 9.628215 -52.978667 11.462205 2.544887 -0.292753 -23.112551 7.507408 1.675548 -1.845831 -3.160323 3.201884 5.781738 1.433739 67.751814 -0.049622 -8.055834 0.657053 45.796566 -0.618265 0.000000 -0.000000 -0.000000 -8.979949 25.307222 -2.703589 -1.843789 1.986950 18.419765 0.000000 0.000000 0.000000 -6.620573 4.064065 -20.219972 4.265771 -4.706375 16.846337 
-0.003564 0.935511 -1.314649 1.186757 -7.649962 -6.369655 -0.000000 0.000000 -0.000000 -0.282031 -0.720629 -5.113456 2.319234 -1.999139 -5.940599 0.000000 0.000000 0.000000 2.783427 -1.371455 -5.858377 3.623399 -3.663125 -2.660849 1.447832 -1.688344 -6.383384 -17.992287 0.243285 9.751033 -53.832520 12.392549 1.865823 -0.347964 -23.750081 7.404480 1.844934 -1.805093 -3.160554 3.248807 5.897014 1.486090 67.618180 -0.282823 -8.064881 0.669753 46.003740 -0.612987 -0.000000 -0.000000 -0.000000 -8.452577 25.582757 -2.523959 -1.944283 1.814388 18.790108 0.000000 0.000000 0.000000 -5.907684 4.439380 -20.507463 4.487103 -4.934080 16.742534 
-0.179723 0.942603 -1.387897 0.999270 -9.151413 -6.402876 -0.000000 0.000000 0.000000 0.682750 -0.725390 -5.702327 2.484305 -2.008856 -5.871798 0.000000 0.000000 0.000000 2.918727 -1.321236 -5.796119 3.508834 -3.661209 -2.079783 1.633657 -1.647558 -6.273916 -17.375909 0.078498 9.846639 -54.627013 13.276212 1.152839 -0.403859 -24.399863 7.303922 2.001785 -1.757702 -3.148928 3.301687 5.998603 1.535981 67.503240 -0.452050 -8.011379 0.685151 46.085153 -0.604561 -0.000000 -0.000000 -0.000000 -7.913574 25.729890 -2.095868 -2.027216 1.627643 18.887570 0.000000 -0.000000 0.000000 -5.196683 4.836964 -20.761388 4.717284 -5.109672 16.729700 
-0.327171 0.947089 -1.458178 0.790427 -10.750592 -6.358284 -0.000000 -0.000000 0.000000 1.534557 -0.727743 -6.212228 2.641006 -2.012453 -5.773249 0.000000 0.000000 0.000000 3.028216 -1.267076 -5.707098 3.373317 -3.639756 -1.436273 1.808342 -1.599058 -6.139593 -16.749495 -0.119378 9.907191 -55.416501 14.080968 0.470535 -0.455387 -25.004792 7.208876 2.149092 -1.709599 -3.122848 3.363802 6.092102 1.574990 67.402276 -0.556537 -7.894303 0.701288 46.124550 -0.599381 -0.000000 -0.000000 -0.000000 -7.385534 25.873470 -1.473029 -2.107836 1.430161 18.531279 0.000000 -0.000000 0.000000 -4.507405 5.302824 -21.080779 4.948880 -5.229165 16.848987 
-0.435247 0.951337 -1.523990 0.642427 -12.618153 -6.269788 -0.000000 -0.000000 0.000000 2.124068 -0.747216 -6.638720 2.784066 -2.008665 -5.649958 0.000000 0.000000 0.000000 3.126985 -1.213751 -5.596309 3.238452 -3.614780 -0.791856 1.976010 -1.550904 -5.992216 -16.148225 -0.322042 9.935660 -56.133138 14.670813 -0.234071 -0.506223 -25.595328 7.111087 2.287445 -1.658173 -3.086316 3.431814 6.178469 1.611560 67.297096 -0.612915 -7.747383 0.717199 46.198005 -0.596655 -0.000000 -0.000000 -0.000000 -6.856840 26.032203 -0.774190 -2.199832 1.289310 18.021323 0.000000 -0.000000 0.000000 -3.895714 5.874943 -21.512007 5.180056 -5.293981 17.106797 
-0.494972 0.956217 -1.586845 0.600448 -14.770319 -6.203533 -0.000000 -0.000000 0.000000 2.649501 -0.769355 -6.921790 2.921155 -2.000660 -5.517543 0.000000 0.000000 0.000000 3.210901 -1.158721 -5.476187 3.110640 -3.531512 -0.264896 2.132658 -1.504869 -5.835774 -15.605147 -0.497063 9.936672 -56.721433 15.025456 -0.959724 -0.551838 -26.124320 6.998393 2.410702 -1.612527 -3.039308 3.511138 6.261909 1.644481 67.174401 -0.653938 -7.594386 0.735304 46.330820 -0.594550 -0.000000 -0.000000 -0.000000 -6.379739 26.138674 -0.113954 -2.337795 1.201799 17.651009 0.000000 -0.000000 0.000000 -3.396570 6.507731 -21.998551 5.387282 -5.350543 17.526792 
-0.499893 0.960838 -1.649292 0.654502 -17.356946 -6.178676 -0.000000 -0.000000 0.000000 3.094290 -0.821338 -7.142641 3.051615 -2.001473 -5.376973 0.000000 0.000000 0.000000 3.290241 -1.106748 -5.333225 3.025555 -3.414219 0.115264 2.281438 -1.468632 -5.678280 -15.149587 -0.655079 9.912785 -57.252681 15.260062 -1.541218 -0.594936 -26.584714 6.892086 2.521580 -1.580676 -2.982542 3.609805 6.336522 1.670245 67.072051 -0.684586 -7.445515 0.754097 46.479951 -0.587722 -0.000000 -0.000000 -0.000000 -6.080875 26.155513 0.560205 -2.499701 1.076126 17.310844 0.000000 -0.000000 0.000000 -3.037761 7.117868 -22.567759 5.571325 -5.396204 18.105017 
-0.444439 0.964327 -1.713728 0.797593 -20.371997 -6.174678 -0.000000 -0.000000 0.000000 3.404552 -0.937849 -7.264707 3.177923 -2.014632 -5.236148 0.000000 0.000000 0.000000 3.364358 -1.064130 -5.182367 2.909288 -3.283326 0.488248 2.423203 -1.447308 -5.527675 -14.782680 -0.804191 9.853902 -57.677193 15.359731 -1.953438 -0.629886 -26.918536 6.789013 2.625125 -1.564496 -2.923874 3.700051 6.411456 1.687067 66.997825 -0.745004 -7.326321 0.772964 46.643114 -0.578701 -0.000000 -0.000000 -0.000000 -5.940490 26.036792 1.230580 -2.690621 0.908901 17.071325 0.000000 -0.000000 0.000000 -2.809962 7.682436 -23.178872 5.742177 -5.371718 18.816122 
-0.330422 0.967569 -1.778831 1.000229 -23.729578 -6.220884 -0.000000 -0.000000 0.000000 3.629948 -1.105882 -7.337153 3.298270 -2.044368 -5.089513 0.000000 0.000000 0.000000 3.434717 -1.042397 -5.037195 2.791782 -3.131730 0.855137 2.560133 -1.443525 -5.381720 -14.518053 -0.927020 9.770646 -57.989624 15.352013 -2.186790 -0.662796 -27.204506 6.674730 2.726203 -1.571331 -2.866026 3.777894 6.487553 1.698088 66.961004 -0.837594 -7.237398 0.790779 46.751842 -0.564825 -0.000000 -0.000000 -0.000000 -5.914757 25.798312 1.824638 -2.902618 0.694385 17.007683 0.000000 -0.000000 0.000000 -2.688212 8.241127 -23.805444 5.903329 -5.288623 19.669735 
-0.171409 0.972485 -1.842434 1.238914 -26.933764 -6.353835 -0.000000 -0.000000 0.000000 3.857705 -1.317304 -7.405510 3.417864 -2.086976 -4.943837 0.000000 0.000000 0.000000 3.507416 -1.037722 -4.895859 2.703919 -2.891405 1.123673 2.696717 -1.454350 -5.245180 -14.362974 -1.014323 9.671154 -58.206245 15.266400 -2.282273 -0.694530 -27.435133 6.559875 2.828659 -1.598916 -2.809583 3.839274 6.566076 1.700487 66.938874 -1.002827 -7.202713 0.808899 46.837184 -0.549302 0.000000 -0.000000 -0.000000 -5.948035 25.457640 2.239368 -3.148283 0.448687 17.329186 0.000000 -0.000000 0.000000 -2.649158 8.843495 -24.454797 6.073893 -5.155779 20.674031 
0.029606 0.981311 -1.902575 1.502724 -29.834618 -6.538415 -0.000000 -0.000000 0.000000 4.145761 -1.580271 -7.456236 3.535073 -2.138543 -4.795006 0.000000 0.000000 0.000000 3.571638 -1.042564 -4.753696 2.632326 -2.602549 1.353084 2.813563 -1.472833 -5.116093 -14.327848 -1.058521 9.560924 -58.330905 15.128532 -2.280747 -0.721471 -27.631032 6.430557 2.929731 -1.641666 -2.759358 3.873480 6.655977 1.699814 66.939365 -1.153774 -7.169590 0.827669 46.899289 -0.529294 0.000000 -0.000000 -0.000000 -6.019949 24.954495 2.530782 -3.385554 0.169510 17.933569 0.000000 -0.000000 0.000000 -2.652191 9.457950 -25.105360 6.225476 -4.975648 21.846477 
0.271696 0.993417 -1.959458 1.779976 -32.479345 -6.750116 -0.000000 -0.000000 0.000000 4.443850 -1.854622 -7.526877 3.643084 -2.187356 -4.650052 0.000000 0.000000 0.000000 3.630169 -1.048283 -4.626112 2.524386 -2.315634 1.539768 2.917860 -1.494552 -5.003846 -14.402685 -1.067523 9.443279 -58.366044 14.983021 -2.192063 -0.747679 -27.797567 6.285998 3.022910 -1.686348 -2.714684 3.891067 6.756136 1.693121 66.964138 -1.328343 -7.183267 0.846332 46.922362 -0.508964 0.000000 -0.000000 -0.000000 -6.176108 24.310430 2.684686 -3.617685 -0.109592 18.717797 0.000000 -0.000000 0.000000 -2.702099 9.956356 -25.753423 6.333007 -4.757422 23.189909 
0.548884 1.008992 -2.014274 2.018943 -34.868393 -6.953870 -0.000000 -0.000000 0.000000 4.751457 -2.121253 -7.633946 3.747202 -2.227952 -4.523622 0.000000 0.000000 0.000000 3.689883 -1.060268 -4.514460 2.387998 -2.118404 1.712799 3.017316 -1.514200 -4.906405 -14.571568 -1.024903 9.331666 -58.355434 14.879692 -2.089635 -0.774864 -27.948591 6.118332 3.107022 -1.725117 -2.681225 3.890815 6.863273 1.689835 67.019089 -1.512032 -7.250178 0.865355 46.915331 -0.486249 0.000000 -0.000000 -0.000000 -6.430830 23.615496 2.694727 -3.837847 -0.407091 19.668829 0.000000 -0.000000 0.000000 -2.801707 10.289015 -26.387586 6.402339 -4.546077 24.620886 
0.855132 1.030640 -2.066548 2.193108 -36.879746 -7.118096 -0.000000 -0.000000 0.000000 5.038641 -2.379333 -7.770775 3.849079 -2.255297 -4.416166 0.000000 0.000000 0.000000 3.751416 -1.065097 -4.408532 2.223142 -1.999914 1.842530 3.112656 -1.525254 -4.817612 -14.792388 -0.954546 9.226849 -58.276759 14.884152 -1.982492 -0.824934 -28.142836 5.934793 3.187984 -1.752922 -2.651869 3.886237 6.979163 1.693176 67.092537 -1.711953 -7.339420 0.882562 46.924884 -0.461789 0.000000 -0.000000 -0.000000 -6.755711 22.817504 2.520951 -4.075268 -0.762437 20.770760 0.000000 -0.000000 0.000000 -2.932271 10.450293 -26.960334 6.462684 -4.353793 25.995409 
